<svg xmlns="http://www.w3.org/2000/svg" width="174.255" height="88.528" viewBox="0 0 174.255 88.528">
  <g id="Grupo_55" data-name="Grupo 55" transform="translate(-1534.041 -8939.5)">
    <g id="Grupo_44" data-name="Grupo 44" transform="translate(20814.486 11172.529)">
      <path id="Trazado_158" data-name="Trazado 158" d="M3.081,77.963H2.965a2.476,2.476,0,0,0-.751-1.713A2.336,2.336,0,0,0,.5,75.538H0v-.385H3.081Zm0,21.335v2.81H0v-.386H.5a2.335,2.335,0,0,0,1.713-.711A2.474,2.474,0,0,0,2.965,99.3Zm4.583,2.81h-4.7V75.153h4.7ZM7.549,77.963v-2.81h3.079v.385h-.5a2.336,2.336,0,0,0-1.713.713,2.476,2.476,0,0,0-.751,1.713Zm10.319,22.643.655,1.5H7.549v-1.5Zm2.695-5.815-1.924,7.318h-7.2l1.387-1.5a7.486,7.486,0,0,0,3.388-.713,6.529,6.529,0,0,0,2.387-2.04,12.06,12.06,0,0,0,1.58-3.063Z" transform="translate(-19280.445 -2308.181)" fill="#fff"/>
      <path id="Trazado_155" data-name="Trazado 155" d="M20.777,98.676a1.485,1.485,0,0,0,.116,1.655,1.606,1.606,0,0,0,1.194.578h.307v.385H14.807v-.385h.309a3.165,3.165,0,0,0,1.655-.52,3.749,3.749,0,0,0,1.387-1.713ZM28.093,77.3l.116,3.965L19.7,101.178H17l9.05-19.445a5.139,5.139,0,0,1,.288-.693q.25-.54.558-1.271c.2-.487.391-.957.558-1.4a4.546,4.546,0,0,0,.288-1.06Zm3.735,17.367H21.854V93.284h9.974ZM28.093,77.3l11.129,23.758H33.869l-7.51-17.906Zm4.774,21.372H38.1a3.731,3.731,0,0,0,1.387,1.713,3.105,3.105,0,0,0,1.617.52h.307v.385H31.25v-.385h.309a1.61,1.61,0,0,0,1.192-.578,1.487,1.487,0,0,0,.116-1.655" transform="translate(-19274.844 -2307.368)" fill="#fff"/>
      <path id="Trazado_151" data-name="Trazado 151" d="M49.173,77.925l-5.582.037a4.1,4.1,0,0,0-1.56-1.866,3.583,3.583,0,0,0-1.829-.558H39.9v-.386h11.05v.386H50.6a1.7,1.7,0,0,0-1.29.616,1.657,1.657,0,0,0-.136,1.771M54.914,102.8,42.438,75.384H48.1L56.723,96.64Zm0,0-.232-4.044,9.935-23.489h2.655L56.991,98.1c-.052.1-.165.353-.346.751s-.372.853-.579,1.366-.385,1.008-.538,1.483a5.613,5.613,0,0,0-.27,1.1ZM63.5,77.925a1.584,1.584,0,0,0-.114-1.771,1.793,1.793,0,0,0-1.349-.616H61.69v-.386h8.088v.386h-.347a3.641,3.641,0,0,0-1.811.558,4.055,4.055,0,0,0-1.577,1.866Z" transform="translate(-19265.354 -2308.182)" fill="#fff"/>
      <path id="Trazado_149" data-name="Trazado 149" d="M65.071,80.372h-.116a1.827,1.827,0,0,0-.693-1.464,2.5,2.5,0,0,0-1.655-.578h-.5v-.385h2.965Zm0,18.253v2.426H62.106v-.386h.5a2.449,2.449,0,0,0,1.655-.6,1.84,1.84,0,0,0,.693-1.443Zm4.39,2.426H64.955v-23.1h4.506Zm-.116-20.679V77.946H72.31l-.037.385h-.425a2.486,2.486,0,0,0-1.675.578,1.969,1.969,0,0,0-.713,1.464Zm0,18.253h.116a1.989,1.989,0,0,0,.713,1.443,2.432,2.432,0,0,0,1.675.6h.462v.386H69.345Z" transform="translate(-19256.949 -2307.125)" fill="#fff"/>
      <path id="Trazado_146" data-name="Trazado 146" d="M74.536,80.372h-.077a2.019,2.019,0,0,0-.674-1.462,2.182,2.182,0,0,0-1.523-.578H71.8v-.386h2.736Zm0,18.253.267,2.426h-3v-.385h.5a2.142,2.142,0,0,0,2.156-2.041Zm4.427,2.426h-4.5v-23.1h4.5Zm-.116-20.679V77.946h2.735v.386h-.423a2.233,2.233,0,0,0-1.56.578,1.9,1.9,0,0,0-.635,1.462ZM88.4,99.626l.617,1.425H78.886V99.626Zm2.429-5.12-1.735,6.546H82.7l1.235-1.425a6.6,6.6,0,0,0,3.021-.635,5.855,5.855,0,0,0,2.1-1.79,10.3,10.3,0,0,0,1.388-2.695Z" transform="translate(-19253.281 -2307.125)" fill="#fff"/>
      <path id="Trazado_142" data-name="Trazado 142" d="M89.621,80.372h-.077a2.018,2.018,0,0,0-.673-1.462,2.182,2.182,0,0,0-1.523-.578h-.462v-.386h2.735Zm0,18.253.269,2.426h-3v-.385h.5a2.14,2.14,0,0,0,2.154-2.041Zm4.429,2.426H89.543v-23.1h4.506Zm-.116-20.679V77.946h2.735v.386h-.425a2.232,2.232,0,0,0-1.559.578,1.9,1.9,0,0,0-.635,1.462Zm9.549,19.254.617,1.425H93.972V99.626Zm2.427-5.12-1.734,6.546H97.783l1.235-1.425a6.6,6.6,0,0,0,3.021-.635,5.866,5.866,0,0,0,2.1-1.79,10.338,10.338,0,0,0,1.388-2.695Z" transform="translate(-19247.574 -2307.125)" fill="#fff"/>
      <path id="Trazado_140" data-name="Trazado 140" d="M106.379,98.676a1.485,1.485,0,0,0,.116,1.655,1.606,1.606,0,0,0,1.194.578H108v.385h-7.586v-.385h.309a3.165,3.165,0,0,0,1.655-.52,3.749,3.749,0,0,0,1.387-1.713ZM113.695,77.3l.116,3.965L105.3,101.178H102.6l9.05-19.445a5.139,5.139,0,0,1,.288-.693q.25-.54.558-1.271c.2-.487.391-.957.558-1.4a4.545,4.545,0,0,0,.288-1.06Zm3.735,17.367h-9.974V93.284h9.974ZM113.695,77.3l11.129,23.758h-5.352l-7.51-17.906Zm4.775,21.372h5.238a3.731,3.731,0,0,0,1.387,1.713,3.105,3.105,0,0,0,1.617.52h.307v.385H116.852v-.385h.309a1.61,1.61,0,0,0,1.192-.578,1.487,1.487,0,0,0,.116-1.655" transform="translate(-19242.457 -2307.368)" fill="#fff"/>
      <path id="Trazado_159" data-name="Trazado 159" d="M.59,105.808H1.845v4.485H7.5v-4.485H8.752v10.584H7.5v-4.933H1.845v4.933H.59Z" transform="translate(-19280.223 -2296.584)" fill="#fff"/>
      <path id="Trazado_157" data-name="Trazado 157" d="M15.892,116.735a5.744,5.744,0,0,1-2.219-.419,5.291,5.291,0,0,1-1.749-1.159,5.2,5.2,0,0,1-1.152-1.763,6.207,6.207,0,0,1,0-4.441,5.2,5.2,0,0,1,1.152-1.763,5.334,5.334,0,0,1,1.749-1.159,6.086,6.086,0,0,1,4.438,0,5.355,5.355,0,0,1,1.75,1.159,5.212,5.212,0,0,1,1.151,1.763,6.207,6.207,0,0,1,0,4.441,5.213,5.213,0,0,1-1.151,1.763,5.311,5.311,0,0,1-1.75,1.159,5.739,5.739,0,0,1-2.219.419m0-1.166a4.1,4.1,0,0,0,1.7-.345,3.981,3.981,0,0,0,1.322-.941,4.3,4.3,0,0,0,.86-1.4,4.921,4.921,0,0,0,0-3.424,4.288,4.288,0,0,0-.86-1.4,3.984,3.984,0,0,0-1.322-.943,4.346,4.346,0,0,0-3.392,0,3.976,3.976,0,0,0-1.323.943,4.288,4.288,0,0,0-.86,1.4,4.921,4.921,0,0,0,0,3.424,4.3,4.3,0,0,0,.86,1.4,3.972,3.972,0,0,0,1.323.941,4.092,4.092,0,0,0,1.7.345" transform="translate(-19276.525 -2296.658)" fill="#fff"/>
      <path id="Trazado_156" data-name="Trazado 156" d="M29.644,106.974h-3.5v9.418H24.89v-9.418h-3.5v-1.166h8.252Z" transform="translate(-19272.354 -2296.584)" fill="#fff"/>
      <path id="Trazado_154" data-name="Trazado 154" d="M30.838,105.808H37.49v1.166h-5.4v3.319h5.038v1.166H32.094v3.767h5.665v1.166H30.838Z" transform="translate(-19268.779 -2296.584)" fill="#fff"/>
      <path id="Trazado_153" data-name="Trazado 153" d="M39.655,105.808h1.256v9.418h4.843v1.166h-6.1Z" transform="translate(-19265.441 -2296.584)" fill="#fff"/>
      <path id="Trazado_152" data-name="Trazado 152" d="M52.864,105.808h3.229a6.02,6.02,0,0,1,1.285.135,3.5,3.5,0,0,1,1.122.441,2.448,2.448,0,0,1,.8.8,2.284,2.284,0,0,1,.306,1.227,2.324,2.324,0,0,1-.5,1.531,2.693,2.693,0,0,1-1.352.859v.032a2.663,2.663,0,0,1,1.712.82,2.536,2.536,0,0,1,.5.8,2.672,2.672,0,0,1,.179.979,2.628,2.628,0,0,1-.367,1.45,2.721,2.721,0,0,1-.957.9,4.164,4.164,0,0,1-1.33.471,8.239,8.239,0,0,1-1.472.135H52.864Zm1.256,4.485h1.734a6.261,6.261,0,0,0,.875-.061,2.2,2.2,0,0,0,.769-.247,1.474,1.474,0,0,0,.554-.524,1.662,1.662,0,0,0,.21-.888,1.467,1.467,0,0,0-.2-.8,1.387,1.387,0,0,0-.515-.487,2.237,2.237,0,0,0-.732-.247,5.056,5.056,0,0,0-.831-.068H54.12Zm0,4.933h2.123a4.4,4.4,0,0,0,.919-.1,2.7,2.7,0,0,0,.823-.316,1.737,1.737,0,0,0,.59-.568,1.556,1.556,0,0,0,.225-.859,1.808,1.808,0,0,0-.218-.928,1.7,1.7,0,0,0-.568-.6,2.293,2.293,0,0,0-.806-.314,4.765,4.765,0,0,0-.935-.09H54.12Z" transform="translate(-19260.445 -2296.584)" fill="#fff"/>
      <path id="Trazado_150" data-name="Trazado 150" d="M67.169,116.735a5.744,5.744,0,0,1-2.219-.419,5.291,5.291,0,0,1-1.749-1.159,5.2,5.2,0,0,1-1.152-1.763,6.207,6.207,0,0,1,0-4.441A5.2,5.2,0,0,1,63.2,107.19a5.334,5.334,0,0,1,1.749-1.159,6.086,6.086,0,0,1,4.438,0,5.355,5.355,0,0,1,1.75,1.159,5.212,5.212,0,0,1,1.151,1.763,6.207,6.207,0,0,1,0,4.441,5.212,5.212,0,0,1-1.151,1.763,5.311,5.311,0,0,1-1.75,1.159,5.739,5.739,0,0,1-2.219.419m0-1.166a4.1,4.1,0,0,0,1.7-.345,3.981,3.981,0,0,0,1.322-.941,4.3,4.3,0,0,0,.86-1.4,4.921,4.921,0,0,0,0-3.424,4.288,4.288,0,0,0-.86-1.4,3.984,3.984,0,0,0-1.322-.943,4.346,4.346,0,0,0-3.392,0,3.976,3.976,0,0,0-1.323.943,4.288,4.288,0,0,0-.86,1.4,4.921,4.921,0,0,0,0,3.424,4.3,4.3,0,0,0,.86,1.4,3.972,3.972,0,0,0,1.323.941,4.092,4.092,0,0,0,1.7.345" transform="translate(-19257.127 -2296.658)" fill="#fff"/>
      <path id="Trazado_147" data-name="Trazado 147" d="M81.454,112.355A6.083,6.083,0,0,1,81.237,114a3.833,3.833,0,0,1-.686,1.369,3.336,3.336,0,0,1-1.235.941,5.061,5.061,0,0,1-3.706,0,3.331,3.331,0,0,1-1.234-.941A3.835,3.835,0,0,1,73.688,114a6.138,6.138,0,0,1-.216-1.644v-6.547h1.256v6.368a5.567,5.567,0,0,0,.135,1.242,3.062,3.062,0,0,0,.448,1.06,2.258,2.258,0,0,0,.837.74,3.266,3.266,0,0,0,2.633,0,2.253,2.253,0,0,0,.835-.74,3.065,3.065,0,0,0,.449-1.06,5.649,5.649,0,0,0,.135-1.242v-6.368h1.254Z" transform="translate(-19252.65 -2296.584)" fill="#fff"/>
      <path id="Trazado_148" data-name="Trazado 148" d="M90.942,106.974h-3.5v9.418H86.188v-9.418h-3.5v-1.166h8.252Z" transform="translate(-19249.162 -2296.584)" fill="#fff"/>
      <rect id="Rectángulo_5" data-name="Rectángulo 5" width="1.256" height="10.584" transform="translate(-19153.451 -2190.776)" fill="#fff"/>
      <path id="Trazado_143" data-name="Trazado 143" d="M108.483,116.466h-6.145a5.52,5.52,0,0,1-2.16-.419,5.245,5.245,0,0,1-2.863-2.863,5.7,5.7,0,0,1,0-4.291,5.245,5.245,0,0,1,2.863-2.863,5.776,5.776,0,0,1,4.32,0,5.245,5.245,0,0,1,2.863,2.863,5.487,5.487,0,0,1,.419,2.146,5.169,5.169,0,0,1-.695,2.577,4.837,4.837,0,0,1-.808,1.032,3.461,3.461,0,0,1-1.068.71v.029h3.274ZM98.242,111.04a4.388,4.388,0,0,0,.316,1.673,4.223,4.223,0,0,0,.859,1.354,3.935,3.935,0,0,0,1.293.9,4.173,4.173,0,0,0,3.25,0,3.933,3.933,0,0,0,1.3-.9,4.271,4.271,0,0,0,.859-1.354,4.413,4.413,0,0,0,.313-1.673,4.515,4.515,0,0,0-.3-1.66,4.213,4.213,0,0,0-.852-1.354,4.1,4.1,0,0,0-1.294-.912,4.188,4.188,0,0,0-3.289,0,4.063,4.063,0,0,0-1.293.912,4.166,4.166,0,0,0-.852,1.354,4.461,4.461,0,0,0-.307,1.66" transform="translate(-19243.787 -2296.658)" fill="#fff"/>
      <path id="Trazado_144" data-name="Trazado 144" d="M116.712,112.355A6.137,6.137,0,0,1,116.5,114a3.878,3.878,0,0,1-.686,1.369,3.341,3.341,0,0,1-1.236.941,5.058,5.058,0,0,1-3.7,0,3.336,3.336,0,0,1-1.235-.941,3.88,3.88,0,0,1-.688-1.369,6.193,6.193,0,0,1-.216-1.644v-6.547h1.257v6.368a5.567,5.567,0,0,0,.135,1.242,3.035,3.035,0,0,0,.447,1.06,2.273,2.273,0,0,0,.838.74,3.262,3.262,0,0,0,2.631,0,2.258,2.258,0,0,0,.837-.74,3.037,3.037,0,0,0,.448-1.06,5.649,5.649,0,0,0,.135-1.242v-6.368h1.256Z" transform="translate(-19239.311 -2296.584)" fill="#fff"/>
      <path id="Trazado_141" data-name="Trazado 141" d="M118.772,105.808h6.652v1.166h-5.4v3.319h5.038v1.166h-5.038v3.767h5.665v1.166h-6.921Z" transform="translate(-19235.51 -2296.584)" fill="#fff"/>
      <path id="Trazado_145" data-name="Trazado 145" d="M6.283,147.34a1.926,1.926,0,0,1-.688-3.724A473.566,473.566,0,0,1,65.949,126.08c45.121-9.878,80.579-10.3,105.392-1.256a1.926,1.926,0,1,1-1.319,3.618c-57.63-21.008-162.005,18.37-163.053,18.77a1.908,1.908,0,0,1-.686.128" transform="translate(-19278.797 -2291.842)" fill="#fff"/>
    </g>
  </g>
</svg>
