<svg xmlns="http://www.w3.org/2000/svg" width="182.316" height="199.21" viewBox="0 0 182.316 199.21">
  <g id="Grupo_46" data-name="Grupo 46" transform="translate(-787.77 -6976)">
    <path id="Trazado_120" data-name="Trazado 120" d="M3.169,78.044H3.05a2.547,2.547,0,0,0-.773-1.762,2.4,2.4,0,0,0-1.762-.733H0v-.4H3.169Zm0,21.947v2.891H0v-.4H.515a2.4,2.4,0,0,0,1.762-.732,2.545,2.545,0,0,0,.773-1.762Zm4.714,2.891H3.051V75.153H7.883ZM7.766,78.044V75.153h3.167v.4h-.515a2.4,2.4,0,0,0-1.762.733,2.547,2.547,0,0,0-.773,1.762Zm10.615,23.293.673,1.545H7.766v-1.545Zm2.772-5.982-1.979,7.527H11.765l1.426-1.545a7.7,7.7,0,0,0,3.485-.733,6.716,6.716,0,0,0,2.456-2.1,12.406,12.406,0,0,0,1.625-3.15Z" transform="translate(790.831 7008.991)" fill="#123940"/>
    <path id="Trazado_121" data-name="Trazado 121" d="M20.948,99.289a1.527,1.527,0,0,0,.119,1.7,1.652,1.652,0,0,0,1.228.594h.316v.4h-7.8v-.4h.318a3.256,3.256,0,0,0,1.7-.535,3.856,3.856,0,0,0,1.426-1.762ZM28.474,77.3l.119,4.079-8.755,20.48H17.066l9.31-20a5.287,5.287,0,0,1,.3-.713q.257-.555.574-1.307c.21-.5.4-.984.574-1.445a4.677,4.677,0,0,0,.3-1.09Zm3.842,17.865H22.056V93.743h10.26ZM28.474,77.3l11.448,24.44H34.416L26.69,83.324Zm4.911,21.985h5.388a3.839,3.839,0,0,0,1.426,1.762,3.194,3.194,0,0,0,1.663.535h.316v.4H31.722v-.4h.318a1.656,1.656,0,0,0,1.226-.594,1.53,1.53,0,0,0,.119-1.7" transform="translate(797.019 7009.89)" fill="#123940"/>
    <path id="Trazado_122" data-name="Trazado 122" d="M49.44,78l-5.742.038a4.22,4.22,0,0,0-1.605-1.92,3.685,3.685,0,0,0-1.881-.574H39.9v-.4H51.263v.4h-.356a1.743,1.743,0,0,0-1.327.634A1.7,1.7,0,0,0,49.44,78m5.905,25.589L42.511,75.39h5.822l8.873,21.866Zm0,0-.238-4.16,10.22-24.163h2.731L57.482,98.762c-.054.1-.17.363-.356.773s-.383.878-.6,1.405-.4,1.036-.553,1.526a5.774,5.774,0,0,0-.278,1.129ZM64.177,78a1.629,1.629,0,0,0-.118-1.822,1.844,1.844,0,0,0-1.388-.634h-.356v-.4h8.32v.4h-.357a3.745,3.745,0,0,0-1.863.574,4.171,4.171,0,0,0-1.622,1.92Z" transform="translate(807.502 7008.991)" fill="#123940"/>
    <path id="Trazado_123" data-name="Trazado 123" d="M65.156,80.441h-.119a1.88,1.88,0,0,0-.713-1.506,2.575,2.575,0,0,0-1.7-.594h-.515v-.4h3.05Zm0,18.777v2.5h-3.05v-.4h.515a2.519,2.519,0,0,0,1.7-.614,1.893,1.893,0,0,0,.713-1.485Zm4.516,2.5H65.037V77.946h4.635Zm-.119-21.272v-2.5H72.6l-.038.4h-.437a2.557,2.557,0,0,0-1.723.594,2.025,2.025,0,0,0-.733,1.506Zm0,18.777h.119A2.046,2.046,0,0,0,70.4,100.7a2.5,2.5,0,0,0,1.723.614H72.6v.4h-3.05Z" transform="translate(816.783 7010.158)" fill="#123940"/>
    <path id="Trazado_124" data-name="Trazado 124" d="M74.614,80.441h-.079a2.077,2.077,0,0,0-.693-1.5,2.245,2.245,0,0,0-1.567-.594H71.8v-.4h2.814Zm0,18.777.275,2.5H71.8v-.4h.518a2.2,2.2,0,0,0,2.218-2.1Zm4.554,2.5H74.535V77.946h4.634ZM79.05,80.441v-2.5h2.813v.4h-.435a2.3,2.3,0,0,0-1.605.594,1.95,1.95,0,0,0-.654,1.5Zm9.823,19.806.635,1.466H79.089v-1.466Zm2.5-5.267-1.785,6.733H83.01l1.27-1.466a6.79,6.79,0,0,0,3.108-.654,6.023,6.023,0,0,0,2.159-1.842,10.591,10.591,0,0,0,1.428-2.772Z" transform="translate(820.833 7010.158)" fill="#123940"/>
    <path id="Trazado_125" data-name="Trazado 125" d="M89.7,80.441H89.62a2.076,2.076,0,0,0-.692-1.5,2.245,2.245,0,0,0-1.567-.594h-.475v-.4H89.7Zm0,18.777.276,2.5h-3.09v-.4H87.4a2.2,2.2,0,0,0,2.216-2.1Zm4.556,2.5H89.62V77.946h4.635Zm-.119-21.272v-2.5h2.813v.4h-.437a2.3,2.3,0,0,0-1.6.594,1.95,1.95,0,0,0-.654,1.5Zm9.823,19.806.635,1.466H94.175v-1.466Zm2.5-5.267-1.784,6.733H98.1l1.27-1.466a6.79,6.79,0,0,0,3.108-.654,6.035,6.035,0,0,0,2.159-1.842,10.634,10.634,0,0,0,1.428-2.772Z" transform="translate(827.138 7010.158)" fill="#123940"/>
    <path id="Trazado_126" data-name="Trazado 126" d="M106.55,99.289a1.527,1.527,0,0,0,.119,1.7,1.652,1.652,0,0,0,1.228.594h.316v.4h-7.8v-.4h.318a3.256,3.256,0,0,0,1.7-.535,3.856,3.856,0,0,0,1.426-1.762ZM114.076,77.3l.119,4.079-8.755,20.48h-2.772l9.31-20a5.287,5.287,0,0,1,.3-.713q.257-.555.574-1.307c.21-.5.4-.984.574-1.445a4.676,4.676,0,0,0,.3-1.09Zm3.842,17.865h-10.26V93.743h10.26ZM114.076,77.3l11.448,24.44h-5.506l-7.726-18.419Zm4.911,21.985h5.388a3.839,3.839,0,0,0,1.426,1.762,3.194,3.194,0,0,0,1.663.535h.316v.4H117.324v-.4h.318a1.656,1.656,0,0,0,1.226-.594,1.53,1.53,0,0,0,.119-1.7" transform="translate(832.788 7009.89)" fill="#123940"/>
    <path id="Trazado_127" data-name="Trazado 127" d="M.59,105.808H1.881v4.614H7.695v-4.614H8.986V116.7H7.695v-5.075H1.881V116.7H.59Z" transform="translate(791.078 7021.8)" fill="#123940"/>
    <path id="Trazado_128" data-name="Trazado 128" d="M16.051,117.054a5.909,5.909,0,0,1-2.283-.431,5.443,5.443,0,0,1-1.8-1.192,5.345,5.345,0,0,1-1.185-1.813,6.385,6.385,0,0,1,0-4.568,5.344,5.344,0,0,1,1.185-1.813,5.487,5.487,0,0,1,1.8-1.192,6.26,6.26,0,0,1,4.565,0,5.508,5.508,0,0,1,1.8,1.192,5.362,5.362,0,0,1,1.184,1.813,6.385,6.385,0,0,1,0,4.568,5.362,5.362,0,0,1-1.184,1.813,5.464,5.464,0,0,1-1.8,1.192,5.9,5.9,0,0,1-2.283.431m0-1.2A4.221,4.221,0,0,0,17.8,115.5a4.1,4.1,0,0,0,1.36-.968,4.418,4.418,0,0,0,.885-1.438,5.062,5.062,0,0,0,0-3.522,4.411,4.411,0,0,0-.885-1.436,4.1,4.1,0,0,0-1.36-.97,4.471,4.471,0,0,0-3.489,0,4.09,4.09,0,0,0-1.361.97,4.411,4.411,0,0,0-.885,1.436,5.062,5.062,0,0,0,0,3.522,4.418,4.418,0,0,0,.885,1.438,4.086,4.086,0,0,0,1.361.968,4.209,4.209,0,0,0,1.744.354" transform="translate(795.161 7021.719)" fill="#123940"/>
    <path id="Trazado_129" data-name="Trazado 129" d="M29.881,107.007h-3.6V116.7H24.99v-9.688h-3.6v-1.2h8.489Z" transform="translate(799.77 7021.8)" fill="#123940"/>
    <path id="Trazado_130" data-name="Trazado 130" d="M30.838,105.808H37.68v1.2H32.13v3.414h5.182v1.2H32.13V115.5h5.827v1.2H30.838Z" transform="translate(803.717 7021.8)" fill="#123940"/>
    <path id="Trazado_131" data-name="Trazado 131" d="M39.655,105.808h1.292V115.5h4.982v1.2H39.655Z" transform="translate(807.402 7021.8)" fill="#123940"/>
    <path id="Trazado_132" data-name="Trazado 132" d="M52.864,105.808h3.322a6.193,6.193,0,0,1,1.321.139,3.6,3.6,0,0,1,1.154.454,2.519,2.519,0,0,1,.822.822,2.35,2.35,0,0,1,.315,1.262,2.39,2.39,0,0,1-.515,1.575,2.77,2.77,0,0,1-1.391.883v.033a2.74,2.74,0,0,1,1.761.844,2.609,2.609,0,0,1,.515.824,2.748,2.748,0,0,1,.184,1.007,2.7,2.7,0,0,1-.377,1.492,2.8,2.8,0,0,1-.984.93,4.283,4.283,0,0,1-1.368.485,8.476,8.476,0,0,1-1.514.139H52.864Zm1.292,4.614h1.784a6.439,6.439,0,0,0,.9-.062,2.265,2.265,0,0,0,.791-.254,1.516,1.516,0,0,0,.57-.539,1.71,1.71,0,0,0,.216-.913,1.509,1.509,0,0,0-.2-.822,1.427,1.427,0,0,0-.53-.5,2.3,2.3,0,0,0-.753-.254,5.2,5.2,0,0,0-.855-.069H54.156Zm0,5.075h2.183a4.521,4.521,0,0,0,.946-.1,2.78,2.78,0,0,0,.846-.325,1.786,1.786,0,0,0,.607-.584,1.6,1.6,0,0,0,.231-.883,1.86,1.86,0,0,0-.224-.954,1.746,1.746,0,0,0-.584-.614,2.358,2.358,0,0,0-.829-.323,4.9,4.9,0,0,0-.961-.092H54.156Z" transform="translate(812.921 7021.8)" fill="#123940"/>
    <path id="Trazado_133" data-name="Trazado 133" d="M67.328,117.054a5.909,5.909,0,0,1-2.283-.431,5.443,5.443,0,0,1-1.8-1.192,5.344,5.344,0,0,1-1.185-1.813,6.385,6.385,0,0,1,0-4.568,5.344,5.344,0,0,1,1.185-1.813,5.487,5.487,0,0,1,1.8-1.192,6.26,6.26,0,0,1,4.565,0,5.508,5.508,0,0,1,1.8,1.192,5.362,5.362,0,0,1,1.184,1.813,6.385,6.385,0,0,1,0,4.568,5.362,5.362,0,0,1-1.184,1.813,5.464,5.464,0,0,1-1.8,1.192,5.9,5.9,0,0,1-2.283.431m0-1.2a4.221,4.221,0,0,0,1.745-.354,4.1,4.1,0,0,0,1.36-.968,4.418,4.418,0,0,0,.885-1.438,5.062,5.062,0,0,0,0-3.522,4.411,4.411,0,0,0-.885-1.436,4.1,4.1,0,0,0-1.36-.97,4.471,4.471,0,0,0-3.489,0,4.09,4.09,0,0,0-1.361.97,4.411,4.411,0,0,0-.885,1.436,5.062,5.062,0,0,0,0,3.522,4.418,4.418,0,0,0,.885,1.438,4.086,4.086,0,0,0,1.361.968,4.209,4.209,0,0,0,1.744.354" transform="translate(816.587 7021.719)" fill="#123940"/>
    <path id="Trazado_134" data-name="Trazado 134" d="M81.683,112.543a6.257,6.257,0,0,1-.223,1.692,3.943,3.943,0,0,1-.706,1.408,3.431,3.431,0,0,1-1.27.968,5.206,5.206,0,0,1-3.813,0,3.426,3.426,0,0,1-1.269-.968,3.945,3.945,0,0,1-.708-1.408,6.314,6.314,0,0,1-.223-1.692v-6.735h1.292v6.55a5.727,5.727,0,0,0,.139,1.277,3.151,3.151,0,0,0,.461,1.09,2.323,2.323,0,0,0,.861.761,3.359,3.359,0,0,0,2.708,0,2.318,2.318,0,0,0,.859-.761,3.152,3.152,0,0,0,.462-1.09,5.811,5.811,0,0,0,.139-1.277v-6.55h1.29Z" transform="translate(821.532 7021.8)" fill="#123940"/>
    <path id="Trazado_135" data-name="Trazado 135" d="M91.179,107.007h-3.6V116.7H86.288v-9.688h-3.6v-1.2h8.489Z" transform="translate(825.384 7021.8)" fill="#123940"/>
    <rect id="Rectángulo_3" data-name="Rectángulo 3" width="1.292" height="10.888" transform="translate(921.467 7127.608)" fill="#123940"/>
    <path id="Trazado_136" data-name="Trazado 136" d="M108.816,116.778h-6.321a5.679,5.679,0,0,1-2.222-.431,5.395,5.395,0,0,1-2.945-2.945,5.865,5.865,0,0,1,0-4.414,5.4,5.4,0,0,1,2.945-2.945,5.942,5.942,0,0,1,4.444,0,5.4,5.4,0,0,1,2.945,2.945,5.644,5.644,0,0,1,.431,2.208,5.317,5.317,0,0,1-.715,2.651,4.975,4.975,0,0,1-.831,1.062,3.561,3.561,0,0,1-1.1.73v.03h3.367ZM98.281,111.2a4.514,4.514,0,0,0,.325,1.721,4.344,4.344,0,0,0,.883,1.392,4.049,4.049,0,0,0,1.33.93,4.293,4.293,0,0,0,3.343,0,4.046,4.046,0,0,0,1.34-.93,4.393,4.393,0,0,0,.883-1.392,4.539,4.539,0,0,0,.322-1.721,4.645,4.645,0,0,0-.313-1.707,4.334,4.334,0,0,0-.876-1.392,4.218,4.218,0,0,0-1.331-.939,4.308,4.308,0,0,0-3.383,0,4.18,4.18,0,0,0-1.33.939,4.285,4.285,0,0,0-.876,1.392,4.589,4.589,0,0,0-.316,1.707" transform="translate(831.321 7021.719)" fill="#123940"/>
    <path id="Trazado_137" data-name="Trazado 137" d="M116.941,112.543a6.313,6.313,0,0,1-.223,1.692,3.989,3.989,0,0,1-.706,1.408,3.437,3.437,0,0,1-1.272.968,5.2,5.2,0,0,1-3.811,0,3.432,3.432,0,0,1-1.27-.968,3.991,3.991,0,0,1-.707-1.408,6.371,6.371,0,0,1-.223-1.692v-6.735h1.293v6.55a5.726,5.726,0,0,0,.139,1.277,3.122,3.122,0,0,0,.459,1.09,2.338,2.338,0,0,0,.862.761,3.356,3.356,0,0,0,2.707,0,2.322,2.322,0,0,0,.861-.761,3.124,3.124,0,0,0,.461-1.09,5.81,5.81,0,0,0,.139-1.277v-6.55h1.292Z" transform="translate(836.264 7021.8)" fill="#123940"/>
    <path id="Trazado_138" data-name="Trazado 138" d="M118.772,105.808h6.843v1.2h-5.551v3.414h5.182v1.2h-5.182V115.5h5.827v1.2h-7.119Z" transform="translate(840.462 7021.8)" fill="#123940"/>
    <path id="Trazado_139" data-name="Trazado 139" d="M6.338,148.172a1.981,1.981,0,0,1-.708-3.831A487.15,487.15,0,0,1,67.716,126.3c46.415-10.162,82.891-10.6,108.415-1.292a1.981,1.981,0,0,1-1.357,3.722C115.49,107.121,8.122,147.629,7.044,148.04a1.963,1.963,0,0,1-.706.132" transform="translate(792.652 7027.038)" fill="#baa76f"/>
    <path id="Trazado_119" data-name="Trazado 119" d="M171.472,82.869H127.929a39.575,39.575,0,0,0-1.385-7.844l18.514-6.8a2.945,2.945,0,1,0-2.029-5.53l-18.521,6.8a39.365,39.365,0,0,0-5.975-9.332L149.281,29.3a2.944,2.944,0,0,0-4.167-4.159L114.382,56a38.533,38.533,0,0,0-6.559-4.611l8.27-17.937a2.943,2.943,0,1,0-5.347-2.463l-8.256,17.9a38.982,38.982,0,0,0-10.94-2.409V2.948a2.947,2.947,0,1,0-5.894,0V46.482a39.275,39.275,0,0,0-7.875,1.394L71.015,29.361a2.944,2.944,0,0,0-5.53,2.02l6.773,18.53a39.564,39.564,0,0,0-9.436,6.077L32.092,25.139A2.944,2.944,0,1,0,27.925,29.3L58.664,60.164a39.259,39.259,0,0,0-4.548,6.519l-17.856-8.35a2.944,2.944,0,0,0-2.5,5.333l17.881,8.358a38.843,38.843,0,0,0-2.376,10.845H5.734a2.943,2.943,0,0,0,0,5.887H55.178c-.086-.967-.126-1.95-.126-2.939s.04-1.981.126-2.948a33.4,33.4,0,0,1,4.295-13.682A33.482,33.482,0,0,1,79.817,53.429a33.013,33.013,0,0,1,5.839-1.045c.966-.088,1.957-.128,2.946-.128s1.981.04,2.948.128a33.651,33.651,0,0,1,27.411,19.148,33.236,33.236,0,0,1,2.029,5.53,32.821,32.821,0,0,1,1.038,5.808c.086.967.126,1.957.126,2.948s-.04,1.972-.126,2.939h49.443a2.943,2.943,0,0,0,0-5.887" transform="translate(784.975 6976)" fill="#baa76f"/>
  </g>
</svg>
