<svg xmlns="http://www.w3.org/2000/svg" width="71.973" height="56.889" viewBox="0 0 71.973 56.889">
  <g id="Grupo_59" data-name="Grupo 59" transform="translate(-787.77 -6976)">
    <path id="Trazado_120" data-name="Trazado 120" d="M1.32,76.357H1.27a1.061,1.061,0,0,0-.322-.734,1,1,0,0,0-.734-.305H0v-.165H1.32Zm0,9.141v1.2H0v-.165H.214a1,1,0,0,0,.734-.3A1.06,1.06,0,0,0,1.27,85.5Zm1.964,1.2H1.271V75.153H3.284ZM3.234,76.357v-1.2H4.554v.165H4.339a1,1,0,0,0-.734.305,1.061,1.061,0,0,0-.322.734Zm4.422,9.7.281.644h-4.7v-.644Zm1.155-2.492L7.986,86.7H4.9l.594-.644a3.208,3.208,0,0,0,1.452-.305,2.8,2.8,0,0,0,1.023-.874,5.167,5.167,0,0,0,.677-1.312Z" transform="translate(789.045 6945.891)" fill="#fff"/>
    <path id="Trazado_121" data-name="Trazado 121" d="M17.365,86.461a.636.636,0,0,0,.05.709.688.688,0,0,0,.511.247h.132v.165h-3.25v-.165h.132a1.356,1.356,0,0,0,.709-.223,1.606,1.606,0,0,0,.594-.734ZM20.5,77.3l.05,1.7L16.9,87.533H15.748L19.625,79.2a2.2,2.2,0,0,1,.123-.3q.107-.231.239-.544c.087-.208.168-.41.239-.6a1.948,1.948,0,0,0,.123-.454Zm1.6,7.441H17.827v-.594H22.1ZM20.5,77.3l4.768,10.179H22.974l-3.218-7.672Zm2.046,9.157h2.244a1.6,1.6,0,0,0,.594.734,1.33,1.33,0,0,0,.693.223h.132v.165H21.852v-.165h.132a.69.69,0,0,0,.511-.247.637.637,0,0,0,.05-.709" transform="translate(782.982 6945.01)" fill="#fff"/>
    <path id="Trazado_122" data-name="Trazado 122" d="M43.871,76.34l-2.392.016a1.758,1.758,0,0,0-.669-.8,1.535,1.535,0,0,0-.784-.239H39.9v-.165h4.735v.165h-.148a.726.726,0,0,0-.553.264.71.71,0,0,0-.058.759M46.331,87,40.985,75.251H43.41l3.7,9.108Zm0,0-.1-1.733L50.488,75.2h1.137l-4.4,9.784c-.022.044-.071.151-.148.322s-.159.366-.248.585-.165.432-.23.635a2.4,2.4,0,0,0-.116.47ZM50.009,76.34a.678.678,0,0,0-.049-.759.768.768,0,0,0-.578-.264h-.148v-.165H52.7v.165H52.55a1.56,1.56,0,0,0-.776.239,1.737,1.737,0,0,0-.676.8Z" transform="translate(772.71 6945.891)" fill="#fff"/>
    <path id="Trazado_123" data-name="Trazado 123" d="M63.376,78.985h-.05a.783.783,0,0,0-.3-.627,1.072,1.072,0,0,0-.709-.247h-.214v-.165h1.27Zm0,7.821v1.039h-1.27V87.68h.214a1.049,1.049,0,0,0,.709-.256.788.788,0,0,0,.3-.618Zm1.881,1.039H63.327v-9.9h1.931Zm-.05-8.86V77.946h1.27l-.016.165H66.28a1.065,1.065,0,0,0-.718.247.844.844,0,0,0-.305.627Zm0,7.821h.05a.852.852,0,0,0,.305.618,1.042,1.042,0,0,0,.718.256h.2v.165h-1.27Z" transform="translate(763.616 6944.748)" fill="#fff"/>
    <path id="Trazado_124" data-name="Trazado 124" d="M72.972,78.985h-.033a.865.865,0,0,0-.289-.627A.935.935,0,0,0,72,78.111h-.2v-.165h1.172Zm0,7.821.115,1.039H71.8v-.165h.216a.918.918,0,0,0,.924-.875Zm1.9,1.039h-1.93v-9.9h1.93Zm-.05-8.86V77.946h1.172v.165H75.81a.957.957,0,0,0-.669.247.812.812,0,0,0-.272.627Zm4.091,8.249.265.611H74.836v-.611Zm1.041-2.194-.744,2.8H76.469L77,87.235a2.828,2.828,0,0,0,1.295-.272,2.508,2.508,0,0,0,.9-.767,4.411,4.411,0,0,0,.595-1.155Z" transform="translate(759.647 6944.748)" fill="#fff"/>
    <path id="Trazado_125" data-name="Trazado 125" d="M88.058,78.985h-.033a.865.865,0,0,0-.288-.627.935.935,0,0,0-.653-.247h-.2v-.165h1.172Zm0,7.821.115,1.039H86.886v-.165H87.1a.917.917,0,0,0,.923-.875Zm1.9,1.039H88.025v-9.9h1.931Zm-.05-8.86V77.946h1.172v.165H90.9a.956.956,0,0,0-.668.247.812.812,0,0,0-.272.627ZM94,87.235l.265.611H89.922v-.611Zm1.04-2.194-.743,2.8H91.555l.529-.611a2.828,2.828,0,0,0,1.295-.272,2.513,2.513,0,0,0,.9-.767,4.429,4.429,0,0,0,.595-1.155Z" transform="translate(753.47 6944.748)" fill="#fff"/>
    <path id="Trazado_126" data-name="Trazado 126" d="M102.967,86.461a.636.636,0,0,0,.05.709.688.688,0,0,0,.511.247h.132v.165h-3.25v-.165h.132a1.356,1.356,0,0,0,.709-.223,1.606,1.606,0,0,0,.594-.734ZM106.1,77.3l.05,1.7-3.647,8.53H101.35l3.878-8.332a2.2,2.2,0,0,1,.123-.3q.107-.231.239-.544c.087-.208.168-.41.239-.6a1.947,1.947,0,0,0,.123-.454Zm1.6,7.441h-4.273v-.594H107.7ZM106.1,77.3l4.768,10.179h-2.293l-3.218-7.672Zm2.046,9.157h2.244a1.6,1.6,0,0,0,.594.734,1.33,1.33,0,0,0,.693.223h.132v.165h-4.355v-.165h.132a.69.69,0,0,0,.511-.247.637.637,0,0,0,.05-.709" transform="translate(747.933 6945.01)" fill="#fff"/>
    <path id="Trazado_119" data-name="Trazado 119" d="M73.051,34.516H54.915a16.484,16.484,0,0,0-.577-3.267l7.711-2.831a1.227,1.227,0,1,0-.845-2.3L53.49,28.946A16.4,16.4,0,0,0,51,25.059L63.809,12.2a1.226,1.226,0,0,0-1.736-1.732l-12.8,12.853a16.049,16.049,0,0,0-2.732-1.92l3.445-7.471a1.226,1.226,0,1,0-2.227-1.026L44.32,20.364a16.237,16.237,0,0,0-4.557-1V1.228a1.227,1.227,0,1,0-2.455,0V19.36a16.359,16.359,0,0,0-3.28.581L31.21,12.229a1.226,1.226,0,0,0-2.3.842l2.821,7.718A16.479,16.479,0,0,0,27.8,23.32L15,10.471A1.226,1.226,0,1,0,13.262,12.2l12.8,12.856a16.352,16.352,0,0,0-1.895,2.715L16.733,24.3a1.226,1.226,0,0,0-1.039,2.221L23.142,30a16.179,16.179,0,0,0-.99,4.517H4.019a1.226,1.226,0,0,0,0,2.452H24.613c-.036-.4-.053-.812-.053-1.224s.017-.825.053-1.228a13.91,13.91,0,0,1,1.789-5.7,13.946,13.946,0,0,1,8.474-6.563,13.75,13.75,0,0,1,2.432-.435c.4-.037.815-.053,1.227-.053s.825.017,1.228.053A14.016,14.016,0,0,1,51.18,29.794a13.843,13.843,0,0,1,.845,2.3,13.671,13.671,0,0,1,.432,2.419c.036.4.053.815.053,1.228s-.017.821-.053,1.224H73.051a1.226,1.226,0,0,0,0-2.452" transform="translate(784.975 6976)" fill="#fff"/>
  </g>
</svg>
