<svg xmlns="http://www.w3.org/2000/svg" width="165.772" height="154.72" viewBox="0 0 165.772 154.72">
  <g id="beach" transform="translate(0.001 -17.067)">
    <g id="Grupo_38" data-name="Grupo 38" transform="translate(-0.001 17.067)">
      <g id="Grupo_37" data-name="Grupo 37" transform="translate(0 0)">
        <path id="Trazado_122" data-name="Trazado 122" d="M163.009,460.8a20.683,20.683,0,0,0-11.354,3.107,16.813,16.813,0,0,1-17.379,0,22.292,22.292,0,0,0-22.7,0,16.787,16.787,0,0,1-17.362,0A20.7,20.7,0,0,0,82.859,460.8a20.677,20.677,0,0,0-11.348,3.107,15.375,15.375,0,0,1-8.68,2.419,15.356,15.356,0,0,1-8.675-2.419A20.688,20.688,0,0,0,42.808,460.8a20.688,20.688,0,0,0-11.348,3.107,15.354,15.354,0,0,1-8.675,2.419,15.355,15.355,0,0,1-8.675-2.419A20.688,20.688,0,0,0,2.762,460.8a2.763,2.763,0,0,0,0,5.526,15.354,15.354,0,0,1,8.677,2.419,20.667,20.667,0,0,0,11.346,3.107,20.667,20.667,0,0,0,11.346-3.107,15.356,15.356,0,0,1,8.677-2.419,15.354,15.354,0,0,1,8.677,2.419,20.666,20.666,0,0,0,11.346,3.107,20.692,20.692,0,0,0,11.351-3.107,16.782,16.782,0,0,1,17.36,0,22.293,22.293,0,0,0,22.7,0,16.791,16.791,0,0,1,17.365,0,22.3,22.3,0,0,0,22.71,0,15.4,15.4,0,0,1,8.688-2.419,2.763,2.763,0,0,0,0-5.526Z" transform="translate(0 -317.131)" fill="#6f8471"/>
        <path id="Trazado_123" data-name="Trazado 123" d="M163.009,392.533a20.683,20.683,0,0,0-11.354,3.107,16.813,16.813,0,0,1-17.379,0,22.292,22.292,0,0,0-22.7,0,16.787,16.787,0,0,1-17.362,0,20.7,20.7,0,0,0-11.354-3.107A20.677,20.677,0,0,0,71.51,395.64a15.375,15.375,0,0,1-8.68,2.419,15.356,15.356,0,0,1-8.675-2.419,20.688,20.688,0,0,0-11.348-3.107,20.688,20.688,0,0,0-11.348,3.107,15.354,15.354,0,0,1-8.675,2.419,15.355,15.355,0,0,1-8.675-2.419,20.688,20.688,0,0,0-11.348-3.107,2.763,2.763,0,0,0,0,5.526,15.354,15.354,0,0,1,8.677,2.419,20.666,20.666,0,0,0,11.346,3.107,20.666,20.666,0,0,0,11.346-3.107,15.357,15.357,0,0,1,8.677-2.419,15.354,15.354,0,0,1,8.677,2.419,20.666,20.666,0,0,0,11.346,3.107,20.69,20.69,0,0,0,11.351-3.107,16.783,16.783,0,0,1,17.36,0,22.293,22.293,0,0,0,22.7,0,16.792,16.792,0,0,1,17.365,0,22.3,22.3,0,0,0,22.71,0,15.4,15.4,0,0,1,8.688-2.419,2.763,2.763,0,0,0,0-5.526Z" transform="translate(0.001 -270.967)" fill="#6f8471"/>
        <path id="Trazado_124" data-name="Trazado 124" d="M2.763,329.793a15.354,15.354,0,0,1,8.677,2.419,20.666,20.666,0,0,0,11.346,3.107,20.666,20.666,0,0,0,11.346-3.107,15.357,15.357,0,0,1,8.677-2.419,15.354,15.354,0,0,1,8.677,2.419,20.666,20.666,0,0,0,11.346,3.107,20.69,20.69,0,0,0,11.351-3.107,16.783,16.783,0,0,1,17.36,0,22.293,22.293,0,0,0,22.7,0,16.792,16.792,0,0,1,17.365,0,22.3,22.3,0,0,0,22.71,0,15.4,15.4,0,0,1,8.688-2.419,2.763,2.763,0,1,0,0-5.526,20.684,20.684,0,0,0-11.354,3.107,16.813,16.813,0,0,1-17.379,0,22.292,22.292,0,0,0-22.7,0,16.788,16.788,0,0,1-17.362,0,20.7,20.7,0,0,0-11.354-3.107,20.677,20.677,0,0,0-11.348,3.107,15.374,15.374,0,0,1-8.68,2.419,15.356,15.356,0,0,1-8.675-2.419,20.688,20.688,0,0,0-11.348-3.107,20.688,20.688,0,0,0-11.348,3.107,15.354,15.354,0,0,1-8.675,2.419,15.355,15.355,0,0,1-8.675-2.419,20.688,20.688,0,0,0-11.348-3.107,2.763,2.763,0,0,0,0,5.526Z" transform="translate(0 -224.804)" fill="#6f8471"/>
        <path id="Trazado_125" data-name="Trazado 125" d="M285.332,212.726c10.148-3.819,18.706.469,21.925,6.674a2.763,2.763,0,0,0,5-2.332c-3.489-8.4-.475-19.081,6.858-24.32a2.763,2.763,0,0,0-3.211-4.5c-6.624,4.731-10.485,12.94-10.587,21.124-5.58-3.671-13.361-5.044-21.933-1.82a2.763,2.763,0,0,0,1.943,5.172Z" transform="translate(-190.423 -132.478)" fill="#6f8471"/>
        <path id="Trazado_126" data-name="Trazado 126" d="M413.768,196.773a8.44,8.44,0,0,1,9.681,1.033,2.763,2.763,0,0,0,4.479-2.949,10.307,10.307,0,0,1,2.828-10.815,2.762,2.762,0,0,0-3.631-4.163,15.76,15.76,0,0,0-5.221,10.888,13.894,13.894,0,0,0-10.946,1.249,2.763,2.763,0,1,0,2.811,4.757Z" transform="translate(-276.981 -126.703)" fill="#6f8471"/>
        <path id="Trazado_127" data-name="Trazado 127" d="M107.436,112.472a22.1,22.1,0,1,0-22.1-22.1A22.128,22.128,0,0,0,107.436,112.472Zm0-38.68A16.577,16.577,0,1,1,90.859,90.369,16.6,16.6,0,0,1,107.436,73.792Z" transform="translate(-57.704 -51.689)" fill="#6f8471"/>
        <path id="Trazado_128" data-name="Trazado 128" d="M147.83,30.881a2.762,2.762,0,0,0,2.763-2.763V19.83a2.763,2.763,0,1,0-5.526,0v8.289A2.762,2.762,0,0,0,147.83,30.881Z" transform="translate(-98.098 -17.067)" fill="#6f8471"/>
        <path id="Trazado_129" data-name="Trazado 129" d="M145.067,216.1v8.289a2.763,2.763,0,0,0,5.526,0V216.1a2.763,2.763,0,0,0-5.526,0Z" transform="translate(-98.098 -149.788)" fill="#6f8471"/>
        <path id="Trazado_130" data-name="Trazado 130" d="M230.4,130.763a2.762,2.762,0,0,0,2.763,2.763h8.289a2.763,2.763,0,1,0,0-5.526h-8.289A2.762,2.762,0,0,0,230.4,130.763Z" transform="translate(-155.802 -92.083)" fill="#6f8471"/>
        <path id="Trazado_131" data-name="Trazado 131" d="M36.9,133.526h8.289a2.763,2.763,0,0,0,0-5.526H36.9a2.763,2.763,0,0,0,0,5.526Z" transform="translate(-23.082 -92.083)" fill="#6f8471"/>
        <path id="Trazado_132" data-name="Trazado 132" d="M208.171,60.944a2.753,2.753,0,0,0,1.953-.809l5.86-5.86a2.763,2.763,0,0,0-3.907-3.907l-5.86,5.86a2.763,2.763,0,0,0,1.954,4.716Z" transform="translate(-138.902 -39.038)" fill="#6f8471"/>
        <path id="Trazado_133" data-name="Trazado 133" d="M73.295,189.151l-5.86,5.86a2.763,2.763,0,1,0,3.907,3.907l5.86-5.86a2.763,2.763,0,0,0-3.907-3.907Z" transform="translate(-45.053 -132.887)" fill="#6f8471"/>
        <path id="Trazado_134" data-name="Trazado 134" d="M210.125,189.152a2.763,2.763,0,0,0-3.907,3.907l5.86,5.86a2.763,2.763,0,0,0,3.907-3.907Z" transform="translate(-138.902 -132.888)" fill="#6f8471"/>
        <path id="Trazado_135" data-name="Trazado 135" d="M73.294,60.135A2.763,2.763,0,1,0,77.2,56.228l-5.86-5.86a2.763,2.763,0,0,0-3.907,3.907Z" transform="translate(-45.053 -39.038)" fill="#6f8471"/>
      </g>
    </g>
  </g>
</svg>
