<svg xmlns="http://www.w3.org/2000/svg" width="42.006" height="42.005" viewBox="0 0 42.006 42.005">
  <g id="public-toilet" transform="translate(-0.999 -1)">
    <path id="Trazado_198" data-name="Trazado 198" d="M14.355,30.42a1.356,1.356,0,0,0,1.355,1.355V33.13a1.356,1.356,0,0,0,1.355,1.355h2.71A1.356,1.356,0,0,0,21.13,33.13V31.775a1.356,1.356,0,0,0,1.355-1.355V29.065H23.84V27.71H22.485V26.355A1.356,1.356,0,0,0,21.13,25H15.71a1.356,1.356,0,0,0-1.355,1.355V27.71H13v1.355h1.355Zm5.42,2.71h-2.71V31.775h2.71ZM15.71,26.355h5.42V30.42H15.71Z" transform="translate(-3.87 -7.74)"/>
    <path id="Trazado_199" data-name="Trazado 199" d="M39.435,44.093a2.719,2.719,0,0,0-1.85-1.268V32.259a6.1,6.1,0,0,0,4.065-5.742V24.485a1.356,1.356,0,0,0-1.355-1.355H30.81V21.775H29.455V23.13H28.1V17.71a1.355,1.355,0,1,1,2.71,0v1.355h1.355V17.71a2.71,2.71,0,1,0-5.42,0v5.42h-2.71a1.356,1.356,0,0,0-1.355,1.355v2.033a6.1,6.1,0,0,0,4.065,5.742V42.825a2.721,2.721,0,0,0-1.85,1.268l-1.243,2.072H14.416l-.954-4.292,2.495-.156A5.736,5.736,0,0,0,21.325,36a2.035,2.035,0,0,0-2.033-2.033H8.338L5.773,20.176a1.365,1.365,0,0,0-1.348-1.111H2.37a1.375,1.375,0,0,0-1.059.495,1.344,1.344,0,0,0-.289,1.105L3.632,34.709V46.165H1V47.52H42.328V46.165H40.678Zm-15.4-17.575V24.485h16.26v2.033a4.749,4.749,0,0,1-4.743,4.743H28.777A4.749,4.749,0,0,1,24.035,26.518Zm4.743,6.1h6.775a6.054,6.054,0,0,0,.678-.04v10.2H28.1v-10.2A6.054,6.054,0,0,0,28.777,32.615ZM26.056,44.791a1.363,1.363,0,0,1,1.162-.658h9.894a1.363,1.363,0,0,1,1.162.658l.825,1.375H25.231ZM19.97,36a4.388,4.388,0,0,1-.058.678H4.989V35.325h14.3A.678.678,0,0,1,19.97,36ZM2.37,20.42l2.071,0L6.96,33.97h-2.1ZM4.989,38.035H19.465a4.376,4.376,0,0,1-3.593,2.329l-6.107.381L9.849,42.1l2.243-.14.935,4.207H4.989Z" transform="translate(0 -4.515)"/>
    <path id="Trazado_200" data-name="Trazado 200" d="M51.325,1H32.355A1.356,1.356,0,0,0,31,2.355V13.2a1.356,1.356,0,0,0,1.355,1.355h2.71V13.2h-2.71V2.355h18.97V13.2H43.2V14.55h8.13A1.356,1.356,0,0,0,52.68,13.2V2.355A1.356,1.356,0,0,0,51.325,1Z" transform="translate(-9.675)"/>
    <path id="Trazado_201" data-name="Trazado 201" d="M0,0H1.355V2.875H0Z" transform="translate(26.262 7.579) rotate(-45)"/>
    <path id="Trazado_202" data-name="Trazado 202" d="M0,0H1.355V7.665H0Z" transform="translate(28.972 4.87) rotate(-45)"/>
    <path id="Trazado_203" data-name="Trazado 203" d="M0,0H1.355V4.791H0Z" transform="translate(33.714 4.87) rotate(-45)"/>
  </g>
</svg>
