<svg xmlns="http://www.w3.org/2000/svg" xmlns:xlink="http://www.w3.org/1999/xlink" width="33.343" height="33.343" viewBox="0 0 33.343 33.343">
  <defs>
    <clipPath id="clip-path">
      <path id="path1368" d="M0-682.665H33.343v33.343H0Z" transform="translate(0 682.665)"/>
    </clipPath>
  </defs>
  <g id="g1362" transform="translate(0 682.665)">
    <g id="g1364" transform="translate(0 -682.665)">
      <g id="g1366" transform="translate(0 0)" clip-path="url(#clip-path)">
        <g id="g1372" transform="translate(0.488 21.296)">
          <path id="path1374" d="M0,0H32.366" fill="none" stroke="#060606" stroke-linecap="round" stroke-linejoin="round" stroke-width="1"/>
        </g>
        <g id="g1376" transform="translate(0.488 5.067)">
          <path id="path1378" d="M-438.026-184.684a2.256,2.256,0,0,0-2.593-1.86,2.256,2.256,0,0,0-1.86,2.593,2.257,2.257,0,0,0-2.593-1.86,2.256,2.256,0,0,0-1.86,2.593,2.257,2.257,0,0,0-2.593-1.86,2.257,2.257,0,0,0-1.86,2.593,2.256,2.256,0,0,0-2.593-1.86,2.256,2.256,0,0,0-1.861,2.593,2.256,2.256,0,0,0-2.593-1.86,2.256,2.256,0,0,0-1.86,2.593l-.076.012a11.319,11.319,0,0,1,9.332-13.005,11.319,11.319,0,0,1,13.005,9.332Z" transform="translate(460.518 194.168)" fill="none" stroke="#060606" stroke-linecap="round" stroke-linejoin="round" stroke-width="1"/>
        </g>
        <g id="g1380" transform="translate(11.443 14.161)">
          <path id="path1382" d="M0,0,1.887,11.48" fill="none" stroke="#060606" stroke-linecap="round" stroke-linejoin="round" stroke-width="1"/>
        </g>
        <g id="g1384" transform="translate(4.882 5.164)">
          <path id="path1386" d="M-3.6-133.132a17.419,17.419,0,0,0,0,5.1,2.266,2.266,0,0,1,.1.38,2.257,2.257,0,0,1,1.86-2.593,2.256,2.256,0,0,1,2.593,1.86,2.256,2.256,0,0,1,1.86-2.593,2.256,2.256,0,0,1,2.593,1.86,2.257,2.257,0,0,1,1.86-2.593,2.257,2.257,0,0,1,2.478,1.433c-1.118-5.943-4.836-10.227-8.437-9.637h0c-1.947.32-3.47,2-4.325,4.424" transform="translate(3.788 139.968)" fill="none" stroke="#060606" stroke-linecap="round" stroke-linejoin="round" stroke-width="1"/>
        </g>
        <g id="g1388" transform="translate(8.975 5.205)">
          <path id="path1390" d="M-20.672-.084l-.02,0c-1.206.22-1.389,5.243-.421,11.291a2.257,2.257,0,0,1,1.887-2.349,2.256,2.256,0,0,1,2.593,1.86,2.274,2.274,0,0,1-.026-.231C-17.678,4.452-19.458-.251-20.672-.084Z" transform="translate(21.734 0.088)" fill="none" stroke="#060606" stroke-linecap="round" stroke-linejoin="round" stroke-width="1"/>
        </g>
        <g id="g1392" transform="translate(22.952 14.406)">
          <path id="path1394" d="M-.568-2.817c-.008-.049-.018-.1-.029-.145.009.048.018.1.026.145Z" transform="translate(0.597 2.961)" fill="none" stroke="#060606" stroke-linecap="round" stroke-linejoin="round" stroke-width="1"/>
        </g>
        <g id="g1396" transform="translate(25.713 3.197)">
          <path id="path1398" d="M-86.326-43.163a2.216,2.216,0,0,1-2.216,2.216,2.216,2.216,0,0,1-2.216-2.216,2.216,2.216,0,0,1,2.216-2.216A2.216,2.216,0,0,1-86.326-43.163Z" transform="translate(90.758 45.38)" fill="none" stroke="#060606" stroke-linecap="round" stroke-linejoin="round" stroke-width="1"/>
        </g>
        <g id="g1400" transform="translate(27.93 0.488)">
          <path id="path1402" d="M0,0V1.156" fill="none" stroke="#060606" stroke-linecap="round" stroke-linejoin="round" stroke-width="1"/>
        </g>
        <g id="g1404" transform="translate(27.93 9.181)">
          <path id="path1406" d="M0,0V1.156" fill="none" stroke="#060606" stroke-linecap="round" stroke-linejoin="round" stroke-width="1"/>
        </g>
        <g id="g1408" transform="translate(30.594 1.931)">
          <path id="path1410" d="M-15.925,0l-.818.818" transform="translate(16.743)" fill="none" stroke="#060606" stroke-linecap="round" stroke-linejoin="round" stroke-width="1"/>
        </g>
        <g id="g1412" transform="translate(24.447 8.078)">
          <path id="path1414" d="M-15.925,0l-.818.818" transform="translate(16.743)" fill="none" stroke="#060606" stroke-linecap="round" stroke-linejoin="round" stroke-width="1"/>
        </g>
        <g id="g1416" transform="translate(31.698 5.413)">
          <path id="path1418" d="M-22.521,0h-1.156" transform="translate(23.677)" fill="none" stroke="#060606" stroke-linecap="round" stroke-linejoin="round" stroke-width="1"/>
        </g>
        <g id="g1420" transform="translate(23.005 5.413)">
          <path id="path1422" d="M-22.521,0h-1.156" transform="translate(23.677)" fill="none" stroke="#060606" stroke-linecap="round" stroke-linejoin="round" stroke-width="1"/>
        </g>
        <g id="g1424" transform="translate(30.594 8.078)">
          <path id="path1426" d="M-15.925-15.925l-.818-.818" transform="translate(16.743 16.743)" fill="none" stroke="#060606" stroke-linecap="round" stroke-linejoin="round" stroke-width="1"/>
        </g>
        <g id="g1428" transform="translate(24.447 1.931)">
          <path id="path1430" d="M-15.925-15.925l-.818-.818" transform="translate(16.743 16.743)" fill="none" stroke="#060606" stroke-linecap="round" stroke-linejoin="round" stroke-width="1"/>
        </g>
        <g id="g1432" transform="translate(1.759 27.719)">
          <path id="path1434" d="M-9.188-19.023a.489.489,0,0,0,0-.977.489.489,0,0,0,0,.977" transform="translate(9.659 20)" fill="#060606"/>
        </g>
        <g id="g1436" transform="translate(8.503 30.445)">
          <path id="path1438" d="M-9.188-19.023a.489.489,0,0,0,0-.977.489.489,0,0,0,0,.977" transform="translate(9.66 20)" fill="#060606"/>
        </g>
        <g id="g1440" transform="translate(10.202 26.751)">
          <path id="path1442" d="M-9.188-19.023a.489.489,0,0,0,0-.977.489.489,0,0,0,0,.977" transform="translate(9.66 20)" fill="#060606"/>
        </g>
        <g id="g1444" transform="translate(23.147 32.366)">
          <path id="path1446" d="M-9.188-19.023a.489.489,0,0,0,0-.977.489.489,0,0,0,0,.977" transform="translate(9.66 20)" fill="#060606"/>
        </g>
        <g id="g1448" transform="translate(28.939 29.65)">
          <path id="path1450" d="M-9.187-19.023a.489.489,0,0,0,0-.977.489.489,0,0,0,0,.977" transform="translate(9.659 20)" fill="#060606"/>
        </g>
        <g id="g1452" transform="translate(18.94 25.641)">
          <path id="path1454" d="M0,0H3.759" fill="none" stroke="#060606" stroke-linecap="round" stroke-linejoin="round" stroke-width="1"/>
        </g>
        <g id="g1456" transform="translate(21.745 23.644)">
          <path id="path1458" d="M0,0H8.4" fill="none" stroke="#060606" stroke-linecap="round" stroke-linejoin="round" stroke-width="1"/>
        </g>
        <g id="g1460" transform="translate(26.592 27.066)">
          <path id="path1462" d="M0-5.236A6.731,6.731,0,0,1,6.252-3.97" transform="translate(0 5.505)" fill="none" stroke="#060606" stroke-linecap="round" stroke-linejoin="round" stroke-width="1"/>
        </g>
        <g id="g1464" transform="translate(0.482 23.253)">
          <path id="path1466" d="M0-62.373a8.144,8.144,0,0,1,8.932-2.81c3.735,1.269,6.406,5.249,10.346,5.443A10.053,10.053,0,0,0,23.1-60.5" transform="translate(0 65.576)" fill="none" stroke="#060606" stroke-linecap="round" stroke-linejoin="round" stroke-width="1"/>
        </g>
      </g>
    </g>
  </g>
</svg>
