<svg xmlns="http://www.w3.org/2000/svg" width="47.162" height="43.555" viewBox="0 0 47.162 43.555">
  <g id="double-bed" transform="translate(0 -19.577)">
    <path id="Trazado_206" data-name="Trazado 206" d="M44.153,40.939V26.116a6.546,6.546,0,0,0-6.539-6.539H9.36a6.546,6.546,0,0,0-6.539,6.539V41.131A10.127,10.127,0,0,0,0,48.15V59.39a3.742,3.742,0,1,0,7.484,0V58.229H39.678V59.39a3.742,3.742,0,1,0,7.484,0V48.15a10.131,10.131,0,0,0-3.009-7.211ZM9.36,21.419H37.614a4.7,4.7,0,0,1,4.7,4.7V39.49a10.127,10.127,0,0,0-1.794-.874V35.552a4.93,4.93,0,0,0-4.925-4.925H27.584a4.921,4.921,0,0,0-4,2.062,4.921,4.921,0,0,0-4-2.062H11.57a4.93,4.93,0,0,0-4.925,4.925v3.063a10.134,10.134,0,0,0-1.982.993V26.116A4.7,4.7,0,0,1,9.36,21.419Zm.8,16.568a10.191,10.191,0,0,0-1.676.139V35.552A3.086,3.086,0,0,1,11.57,32.47h8.007a3.086,3.086,0,0,1,3.082,3.082v2.435h-12.5ZM24.5,35.552a3.086,3.086,0,0,1,3.082-3.082h8.007a3.086,3.086,0,0,1,3.082,3.082v2.574A10.192,10.192,0,0,0,37,37.987H24.5ZM10.163,39.83H37a8.33,8.33,0,0,1,8.321,8.321v2.733H36.081a.921.921,0,0,0,0,1.842h9.239v3.662H1.842V52.725H26.87a.921.921,0,1,0,0-1.842H1.842V48.15a8.33,8.33,0,0,1,8.321-8.321ZM5.641,59.39a1.9,1.9,0,1,1-3.8,0V58.229h3.8Zm37.778,1.9a1.9,1.9,0,0,1-1.9-1.9V58.229h3.8V59.39A1.9,1.9,0,0,1,43.42,61.29Z"/>
    <circle id="Elipse_16" data-name="Elipse 16" cx="0.922" cy="0.922" r="0.922" transform="translate(30.553 50.883)"/>
  </g>
</svg>
