<svg xmlns="http://www.w3.org/2000/svg" width="23.647" height="23.766" viewBox="0 0 23.647 23.766">
  <g id="car-wash" transform="translate(-0.122 -0.004)">
    <path id="Trazado_189" data-name="Trazado 189" d="M7.729,26.857a22.436,22.436,0,0,0-2.291-.217c-.336-.021-.779.154-.856,1a1.963,1.963,0,0,0,.061.634,1.1,1.1,0,0,0,.918.837l3.278.462a.3.3,0,0,0,.05,0,.371.371,0,0,0,.329-.545C8.139,26.983,7.863,26.9,7.729,26.857ZM5.664,28.377a.364.364,0,0,1-.3-.278,1.26,1.26,0,0,1-.043-.391.783.783,0,0,1,.075-.326h.01c.847.053,1.8.13,2.057.175a8.973,8.973,0,0,1,.746,1.179Z" transform="translate(-2.25 -13.445)"/>
    <path id="Trazado_190" data-name="Trazado 190" d="M37.785,26.639a22.436,22.436,0,0,0-2.291.217c-.133.041-.41.126-1.489,2.179a.371.371,0,0,0,.329.545.3.3,0,0,0,.05,0l3.278-.462a1.1,1.1,0,0,0,.918-.837,1.973,1.973,0,0,0,.061-.634C38.564,26.794,38.119,26.619,37.785,26.639Zm.074,1.46a.364.364,0,0,1-.3.278l-2.546.359a9.059,9.059,0,0,1,.745-1.179c.262-.046,1.216-.123,2.062-.175a.679.679,0,0,1,.081.327,1.258,1.258,0,0,1-.043.391Z" transform="translate(-17.083 -13.445)"/>
    <path id="Trazado_191" data-name="Trazado 191" d="M23.834,27.616a.372.372,0,0,0-.337-.157c-.034,0-3.445.3-4.8.3s-4.77-.3-4.8-.3a.371.371,0,0,0-.368.528l.978,2.075a.373.373,0,0,0,.314.212l3.877.222,3.883-.222a.372.372,0,0,0,.314-.212l.978-2.075A.37.37,0,0,0,23.834,27.616ZM22.31,29.547l-3.617.209-3.615-.209-.61-1.293c1.069.087,3.188.248,4.226.248s3.157-.16,4.227-.248Z" transform="translate(-6.747 -13.859)"/>
    <path id="Trazado_192" data-name="Trazado 192" d="M28.068,2.475l.548.205a1.337,1.337,0,0,1,.784.783l.2.55a.371.371,0,0,0,.693,0l.205-.548a1.339,1.339,0,0,1,.783-.783l.548-.205a.371.371,0,0,0,0-.693l-.548-.205h0A1.337,1.337,0,0,1,30.5.8L30.3.243a.371.371,0,0,0-.693,0L29.4.791a1.337,1.337,0,0,1-.783.784l-.548.205a.371.371,0,0,0,0,.693Zm1.884-1.12a2.076,2.076,0,0,0,.771.772,2.072,2.072,0,0,0-.771.772,2.08,2.08,0,0,0-.772-.772,2.08,2.08,0,0,0,.772-.772Z" transform="translate(-13.987 0)"/>
    <path id="Trazado_193" data-name="Trazado 193" d="M36.5,7.561l.415.155a.925.925,0,0,1,.541.542l.155.415a.371.371,0,0,0,.7,0l.155-.415A.925.925,0,0,1,39,7.716l.415-.155a.371.371,0,0,0,0-.693L39,6.71h0a.92.92,0,0,1-.541-.541l-.156-.415a.371.371,0,0,0-.7,0l-.155.415a.924.924,0,0,1-.541.541l-.415.155a.371.371,0,0,0,0,.693Zm1.459-.767a1.656,1.656,0,0,0,.417.417,1.678,1.678,0,0,0-.417.417,1.668,1.668,0,0,0-.417-.417A1.654,1.654,0,0,0,37.958,6.794Z" transform="translate(-18.243 -2.781)"/>
    <path id="Trazado_194" data-name="Trazado 194" d="M41.184,2.907l.415.155a.924.924,0,0,1,.541.541l.155.415a.371.371,0,0,0,.7,0l.155-.415a.923.923,0,0,1,.541-.541l.415-.155a.371.371,0,0,0,0-.693l-.415-.156h0a.923.923,0,0,1-.541-.541L42.992,1.1a.371.371,0,0,0-.7,0l-.155.415a.923.923,0,0,1-.541.541l-.415.156a.371.371,0,0,0,0,.693Zm1.459-.765a1.683,1.683,0,0,0,.417.417,1.683,1.683,0,0,0-.417.417,1.668,1.668,0,0,0-.417-.417,1.676,1.676,0,0,0,.417-.417Z" transform="translate(-20.609 -0.432)"/>
    <path id="Trazado_195" data-name="Trazado 195" d="M42.441,42.371a.371.371,0,0,0-.371.371v1.542a.131.131,0,0,1-.131.131H40.009a.131.131,0,0,1-.131-.131v-.636a.371.371,0,0,0-.743,0v.636a.875.875,0,0,0,.874.874H41.94a.875.875,0,0,0,.874-.874V42.742a.371.371,0,0,0-.373-.371Z" transform="translate(-19.695 -21.388)"/>
    <path id="Trazado_196" data-name="Trazado 196" d="M4.691,43.277a.371.371,0,0,0-.371.371v.636a.131.131,0,0,1-.131.131H2.257a.131.131,0,0,1-.131-.131V42.742a.371.371,0,0,0-.743,0v1.542a.874.874,0,0,0,.872.874H4.188a.874.874,0,0,0,.873-.874v-.636A.371.371,0,0,0,4.691,43.277Z" transform="translate(-0.637 -21.388)"/>
    <path id="Trazado_197" data-name="Trazado 197" d="M23.052,14.889l-1.238-.214a.809.809,0,0,0-.891.479l-.067.149-.877-2.07a3.013,3.013,0,0,0-2.311-1.814A37.014,37.014,0,0,0,11.946,11a37.014,37.014,0,0,0-5.721.419,3.013,3.013,0,0,0-2.311,1.814L3.033,15.3l-.062-.146a.812.812,0,0,0-.891-.484l-1.238.214a.86.86,0,0,0-.719.848v.243a.864.864,0,0,0,.674.842l1.176.265-.521.795A4.2,4.2,0,0,0,.76,20.2v4.224A2.56,2.56,0,0,0,3.59,27.043H20.3a2.56,2.56,0,0,0,2.829-2.624V20.193a4.2,4.2,0,0,0-.691-2.312l-.521-.792,1.172-.264a.865.865,0,0,0,.678-.842v-.243a.859.859,0,0,0-.717-.85ZM.956,16.1a.117.117,0,0,1-.092-.115v-.243a.115.115,0,0,1,.1-.116l1.243-.215a.073.073,0,0,1,.083.05l.3.686-.185.282Zm21.432,7.17H2.444a.371.371,0,0,0,0,.743H22.388v.411A1.83,1.83,0,0,1,20.3,26.3H3.59A1.83,1.83,0,0,1,1.5,24.419V20.193a3.466,3.466,0,0,1,.569-1.905L3.243,16.5h16.2a.371.371,0,0,0,0-.743H3.648L4.6,13.525a2.272,2.272,0,0,1,1.744-1.371,36.16,36.16,0,0,1,5.6-.412,36.16,36.16,0,0,1,5.6.41,2.272,2.272,0,0,1,1.744,1.372l1.085,2.559a.331.331,0,0,0,.031.058L21.82,18.29a3.466,3.466,0,0,1,.569,1.905Zm.638-7.285a.118.118,0,0,1-.095.116l-1.447.327-.185-.282.306-.693a.075.075,0,0,1,.081-.043l1.241.215a.115.115,0,0,1,.1.116Z" transform="translate(0 -5.55)"/>
  </g>
</svg>
