<svg xmlns="http://www.w3.org/2000/svg" width="27.319" height="29.763" viewBox="0 0 27.319 29.763">
  <g id="dog" transform="translate(1.395)">
    <path id="Trazado_173" data-name="Trazado 173" d="M268.875,397.46a.5.5,0,0,1-.1-1l7.813-1.562V392.79h-.5a.5.5,0,0,1,0-1.009h1.009a.5.5,0,0,1,.5.5v3.027a.5.5,0,0,1-.405.495l-8.218,1.644A.5.5,0,0,1,268.875,397.46Zm0,0" transform="translate(-253.788 -368.576)"/>
    <path id="Trazado_174" data-name="Trazado 174" d="M75.168,397.46a.5.5,0,0,1-.1-.01l-8.218-1.644a.5.5,0,0,1-.405-.495v-3.027a.5.5,0,0,1,.5-.5h1.009a.5.5,0,0,1,0,1.009h-.5V394.9l7.813,1.562a.5.5,0,0,1-.1,1Zm0,0" transform="translate(-63.823 -368.576)"/>
    <path id="Trazado_175" data-name="Trazado 175" d="M349.9,13.8a.5.5,0,0,1-.392-.822l3-3.713a.207.207,0,0,0-.252-.253.422.422,0,0,1-.056.011l-4.792.691a.5.5,0,1,1-.144-1l4.767-.688A1.215,1.215,0,0,1,353.4,9.752a.468.468,0,0,1-.06.094l-3.047,3.768A.5.5,0,0,1,349.9,13.8Zm0,0" transform="translate(-327.602 -7.524)"/>
    <path id="Trazado_176" data-name="Trazado 176" d="M93.061,25.727a.489.489,0,0,1-.083-.007L83.9,24.207a.5.5,0,0,1-.422-.5V6.725A6.733,6.733,0,0,1,90.2,0h5.719a6.733,6.733,0,0,1,6.725,6.725V23.709a.5.5,0,0,1-.422.5l-9.08,1.513A.5.5,0,0,1,93.061,25.727Zm-8.576-2.445,8.576,1.429,8.576-1.429V6.725a5.723,5.723,0,0,0-5.716-5.716H90.2a5.723,5.723,0,0,0-5.716,5.716Zm17.656.427h0Zm0,0" transform="translate(-79.845)"/>
    <path id="Trazado_177" data-name="Trazado 177" d="M3.618,50.607a.5.5,0,0,1-.228-.055L-.859,48.4a.506.506,0,0,1-.093-.061,1.2,1.2,0,0,1-.4-1.252,1.2,1.2,0,0,1,.941-.878l5.541-1.587a.5.5,0,0,1,.278.97L-.158,47.187a.486.486,0,0,1-.055.012.2.2,0,0,0-.165.15.2.2,0,0,0,.038.184l4.186,2.119a.5.5,0,0,1-.228.955Zm0,0" transform="translate(0 -41.962)"/>
    <path id="Trazado_178" data-name="Trazado 178" d="M170.158,145.546a.757.757,0,1,1-.757-.757A.756.756,0,0,1,170.158,145.546Zm0,0" transform="translate(-159.968 -136.213)"/>
    <path id="Trazado_179" data-name="Trazado 179" d="M297.916,145.546a.757.757,0,1,1-.757-.757A.757.757,0,0,1,297.916,145.546Zm0,0" transform="translate(-280.159 -136.213)"/>
    <path id="Trazado_180" data-name="Trazado 180" d="M237.29,233.993a.5.5,0,0,1-.5-.5v-3.027a.5.5,0,1,1,1.009,0v3.027A.5.5,0,0,1,237.29,233.993Zm0,0" transform="translate(-224.073 -216.337)"/>
    <path id="Trazado_181" data-name="Trazado 181" d="M206.751,231.975h-3.027a1.009,1.009,0,0,1,0-2.018h3.027a1.009,1.009,0,0,1,0,2.018Zm0,0" transform="translate(-192.021 -216.337)"/>
    <path id="Trazado_182" data-name="Trazado 182" d="M239.812,280.332a3.03,3.03,0,0,1-3.027-3.027.5.5,0,0,1,1.009,0,2.018,2.018,0,1,0,4.036,0,.5.5,0,0,1,1.009,0A3.03,3.03,0,0,1,239.812,280.332Zm0,0" transform="translate(-224.073 -260.406)"/>
    <path id="Trazado_183" data-name="Trazado 183" d="M154.64,280.332a3.03,3.03,0,0,1-3.027-3.027.5.5,0,0,1,1.009,0,2.018,2.018,0,0,0,4.036,0,.5.5,0,0,1,1.009,0A3.03,3.03,0,0,1,154.64,280.332Zm0,0" transform="translate(-143.946 -260.406)"/>
    <path id="Trazado_184" data-name="Trazado 184" d="M83.981,106.243a.5.5,0,0,1-.5-.5v-3.027a.5.5,0,0,1,1.009,0v3.027A.5.5,0,0,1,83.981,106.243Zm0,0" transform="translate(-79.845 -96.153)"/>
    <path id="Trazado_185" data-name="Trazado 185" d="M205.237,422.376a2.522,2.522,0,1,1,2.522-2.522A2.525,2.525,0,0,1,205.237,422.376Zm0-4.036a1.513,1.513,0,1,0,1.513,1.514A1.515,1.515,0,0,0,205.237,418.341Zm0,0" transform="translate(-192.021 -392.614)"/>
  </g>
</svg>
