<svg id="Layer_2" data-name="Layer 2" xmlns="http://www.w3.org/2000/svg" width="40.998" height="40.997" viewBox="0 0 40.998 40.997">
  <g id="_01.facebook" data-name="01.facebook">
    <path id="Trazado_113" data-name="Trazado 113" d="M20.5,0A20.5,20.5,0,1,0,41,20.5,20.5,20.5,0,0,0,20.5,0Zm5.195,18.557-.34,2.856a.539.539,0,0,1-.539.48H21.847v8.469a.383.383,0,0,1-.378.386H18.449a.383.383,0,0,1-.378-.388l.016-8.466H15.841a.539.539,0,0,1-.539-.539V18.5a.539.539,0,0,1,.539-.539h2.231V15.193c0-3.2,1.907-4.944,4.693-4.944h2.285a.539.539,0,0,1,.539.539v2.4a.539.539,0,0,1-.539.539h-1.4c-1.516.024-1.8.75-1.8,1.834v2.387H25.17a.539.539,0,0,1,.523.6Z" fill="#baa76f"/>
  </g>
</svg>
