<svg xmlns="http://www.w3.org/2000/svg" width="50.5" height="50.5" viewBox="0 0 50.5 50.5">
  <g id="refugee" transform="translate(-1 -1)">
    <path id="Trazado_204" data-name="Trazado 204" d="M17.29,8.331a7.331,7.331,0,1,0-14.661,0v7.421A5.678,5.678,0,0,0,1,19.734V30.323a2.444,2.444,0,0,0,2.444,2.444h.815v6.516a.815.815,0,0,0,.815.815h.815v6.666a2.444,2.444,0,0,0-1.629,2.294v1.629a.815.815,0,0,0,.815.815h9.774a.815.815,0,0,0,.815-.815V49.056a2.444,2.444,0,0,0-1.629-2.294V40.1h.815a.815.815,0,0,0,.815-.815V32.766h.815a2.444,2.444,0,0,0,2.444-2.444V19.734a5.678,5.678,0,0,0-1.629-3.982ZM9.96,2.629a5.708,5.708,0,0,1,5.7,5.7v6.26a5.661,5.661,0,0,0-2.086-.54,4.859,4.859,0,0,0,1.271-3.276V7.516a.815.815,0,0,0-.815-.815H5.887a.815.815,0,0,0-.815.815v3.258a4.858,4.858,0,0,0,1.271,3.275,5.661,5.661,0,0,0-2.085.541V8.331a5.708,5.708,0,0,1,5.7-5.7ZM6.7,10.774V8.331h6.516v2.444a3.258,3.258,0,0,1-6.516,0Zm4.073,4.887L9.96,16.747l-.815-1.086Zm-4.073,0h.407l2.2,2.932a.815.815,0,0,0,1.3,0l2.2-2.932h.407a4.077,4.077,0,0,1,4.073,4.073v8.145H15.661v-8.96H14.032v8.96H5.887v-8.96H4.258v8.96H2.629V19.734A4.077,4.077,0,0,1,6.7,15.661ZM3.444,31.137a.815.815,0,0,1-.815-.815v-.815H4.258v1.629Zm5.7,8.96v6.516H7.516V40.1Zm-3.258,8.96a.815.815,0,0,1,.815-.815H9.145v1.629H5.887Zm8.145.815H10.774V48.242h2.444a.815.815,0,0,1,.815.815ZM12.4,46.613H10.774V40.1H12.4ZM5.887,38.468v-8.96h8.145v8.96Zm10.589-7.331h-.815V29.508H17.29v.815A.815.815,0,0,1,16.476,31.137Z"/>
    <path id="Trazado_205" data-name="Trazado 205" d="M55.137,51.5a.815.815,0,0,0,.815-.815V37.653a.815.815,0,0,0-.815-.815H50.25V34.4a.815.815,0,0,0-.815-.815H42.919a.815.815,0,0,0-.815.815v2.444H39.661V32.766h.815a2.444,2.444,0,0,0,2.444-2.444V18.1a4.077,4.077,0,0,0-4.073-4.073H37.592a4.894,4.894,0,0,0,.969-1.629h1.1a2.438,2.438,0,0,0,.815-4.737V5.073A4.077,4.077,0,0,0,36.4,1H31.516a4.077,4.077,0,0,0-4.073,4.073V7.666a2.438,2.438,0,0,0,.815,4.737h1.1a4.894,4.894,0,0,0,.969,1.629H29.073A4.077,4.077,0,0,0,25,18.1V30.323a2.444,2.444,0,0,0,2.444,2.444h.815v14a2.444,2.444,0,0,0-1.629,2.294v1.629a.815.815,0,0,0,.815.815ZM50.25,38.468v11.4H42.1v-11.4ZM43.734,35.21h4.887v1.629H43.734Zm-3.258-4.073h-.815V29.508H41.29v.815A.815.815,0,0,1,40.476,31.137ZM35.589,15.661a1.629,1.629,0,1,1-3.258,0Zm4.073-4.887h-.815V9.145h.815a.815.815,0,1,1,0,1.629Zm-10.589-5.7a2.444,2.444,0,0,1,2.444-2.444H36.4a2.444,2.444,0,0,1,2.444,2.444V7.516H36.4c-1.609,0-4.073-1.311-4.073-2.444a.815.815,0,0,0-1.629,0,2.448,2.448,0,0,1-1.629,2.3Zm-.815,5.7a.815.815,0,0,1,0-1.629h.815v1.629Zm2.444,0V8.331a4.1,4.1,0,0,0,1.021-1.117A7.618,7.618,0,0,0,36.4,9.145h.815v1.629a3.258,3.258,0,0,1-6.516,0Zm-1.629,4.887H30.7a3.258,3.258,0,1,0,6.516,0h1.629A2.444,2.444,0,0,1,41.29,18.1v9.774H39.661v-8.96H38.032v8.96H29.887v-8.96H28.258v8.96H26.629V18.1A2.444,2.444,0,0,1,29.073,15.661ZM27.444,31.137a.815.815,0,0,1-.815-.815v-.815h1.629v1.629Zm.815,17.919a.815.815,0,0,1,.815-.815h4.073v1.629H28.258Zm6.516-.815H36.4v1.629H34.774ZM36.4,37.653v8.96H34.774V32.766H33.145V46.613H29.887v-17.1h8.145v7.331h-.815A.815.815,0,0,0,36.4,37.653Zm1.629.815h2.444v11.4H38.032Zm16.29,11.4H51.879v-11.4h2.444Z" transform="translate(-4.452)"/>
  </g>
</svg>
