<svg id="instagram_1_" data-name="instagram (1)" xmlns="http://www.w3.org/2000/svg" width="43.425" height="43.425" viewBox="0 0 43.425 43.425">
  <path id="Trazado_114" data-name="Trazado 114" d="M215.312,211.156A4.156,4.156,0,1,1,211.156,207,4.156,4.156,0,0,1,215.312,211.156Zm0,0" transform="translate(-189.443 -189.443)" fill="#baa76f"/>
  <path id="Trazado_115" data-name="Trazado 115" d="M155.425,138.356a4.129,4.129,0,0,0-2.366-2.366,6.9,6.9,0,0,0-2.315-.429c-1.315-.06-1.709-.073-5.038-.073s-3.724.013-5.038.073a6.9,6.9,0,0,0-2.315.429,4.131,4.131,0,0,0-2.367,2.366,6.9,6.9,0,0,0-.429,2.315c-.06,1.315-.073,1.709-.073,5.038s.013,3.723.073,5.038a6.9,6.9,0,0,0,.429,2.315,4.129,4.129,0,0,0,2.366,2.366,6.89,6.89,0,0,0,2.315.429c1.315.06,1.709.073,5.038.073s3.724-.013,5.038-.073a6.889,6.889,0,0,0,2.315-.429,4.129,4.129,0,0,0,2.366-2.366,6.9,6.9,0,0,0,.429-2.315c.06-1.315.073-1.709.073-5.038s-.013-3.724-.073-5.038A6.889,6.889,0,0,0,155.425,138.356Zm-9.719,13.755a6.4,6.4,0,1,1,6.4-6.4A6.4,6.4,0,0,1,145.706,152.112Zm6.655-11.561a1.5,1.5,0,1,1,1.5-1.5A1.5,1.5,0,0,1,152.361,140.55Zm0,0" transform="translate(-123.993 -123.997)" fill="#baa76f"/>
  <path id="Trazado_116" data-name="Trazado 116" d="M21.712,0A21.712,21.712,0,1,0,43.425,21.712,21.715,21.715,0,0,0,21.712,0ZM34.105,26.853a9.147,9.147,0,0,1-.579,3.026,6.375,6.375,0,0,1-3.646,3.646,9.154,9.154,0,0,1-3.026.579c-1.33.061-1.754.075-5.14.075s-3.811-.015-5.141-.075a9.154,9.154,0,0,1-3.026-.579A6.375,6.375,0,0,1,9.9,29.879a9.145,9.145,0,0,1-.579-3.026c-.061-1.33-.076-1.755-.076-5.141s.014-3.811.075-5.14A9.148,9.148,0,0,1,9.9,13.546,6.379,6.379,0,0,1,13.546,9.9a9.156,9.156,0,0,1,3.026-.579c1.33-.061,1.754-.075,5.14-.075s3.811.015,5.14.076a9.158,9.158,0,0,1,3.026.579,6.377,6.377,0,0,1,3.646,3.647,9.146,9.146,0,0,1,.58,3.026c.061,1.33.075,1.754.075,5.14S34.166,25.523,34.105,26.853Zm0,0" fill="#baa76f"/>
</svg>
