<svg xmlns="http://www.w3.org/2000/svg" width="43.425" height="43.425" viewBox="0 0 43.425 43.425">
  <g id="Layer_2" data-name="Layer 2" transform="translate(0 -38.788)">
    <g id="_08.whatsapp" data-name="08.whatsapp" transform="translate(0 38.788)">
      <path id="Trazado_117" data-name="Trazado 117" d="M60.946,48.758l-.043-.043a8.431,8.431,0,0,0-13.47,9.779l.371.731-.694,3.365v.043l3.334-.791.76.377a8.422,8.422,0,0,0,9.742-13.462Zm-.337,9.428a3.521,3.521,0,0,1-1.866,1.626c-1.428.346-3.6,0-6.325-2.517l-.034-.031c-2.368-2.211-3-4.054-2.857-5.514a3.5,3.5,0,0,1,1.357-2.068.774.774,0,0,1,1.214.286l.877,2a.771.771,0,0,1-.094.789l-.446.571a.757.757,0,0,0-.06.843,8.285,8.285,0,0,0,1.506,1.671,8.739,8.739,0,0,0,2.086,1.494.754.754,0,0,0,.826-.174l.511-.517a.777.777,0,0,1,.786-.24l2.086.6a.78.78,0,0,1,.44,1.166Z" transform="translate(-33.234 -33.045)" fill="#baa76f"/>
      <path id="Trazado_118" data-name="Trazado 118" d="M21.712,0A21.712,21.712,0,1,0,43.425,21.712,21.712,21.712,0,0,0,21.712,0ZM32.474,21.967a10.773,10.773,0,0,1-15.559,9.3l-5.428,1.291a.42.42,0,0,1-.44-.171.411.411,0,0,1-.066-.323l1.143-5.548a10.771,10.771,0,1,1,20.358-4.548Z" fill="#baa76f"/>
    </g>
  </g>
</svg>
