<svg xmlns="http://www.w3.org/2000/svg" width="24.298" height="24.298" viewBox="0 0 24.298 24.298">
  <g id="layer2" transform="translate(-0.529 -0.529)">
    <path id="rect1555" d="M19.156,1.743v9.72a.807.807,0,0,0-.808.808l0,3.647H2.15A1.617,1.617,0,0,0,.529,17.539v4.047A1.619,1.619,0,0,0,2.15,23.207h.4v1.213a.405.405,0,0,0,.407.407H5.794a.406.406,0,0,0,.4-.407V23.207H19.156v1.213a.405.405,0,0,0,.407.407H22.4a.405.405,0,0,0,.407-.407V23.207h.4a1.616,1.616,0,0,0,1.62-1.621V17.539a1.616,1.616,0,0,0-1.62-1.621H22.4V12.272a.809.809,0,0,0-.809-.808V1.743a1.215,1.215,0,0,0-2.431,0Zm1.217-.4a.4.4,0,0,1,.4.4v9.72h-.81V1.743a.4.4,0,0,1,.407-.4ZM8.855,5.109a10.4,10.4,0,0,0-7.4,3.1c-.395.369.212.97.577.568a9.568,9.568,0,0,1,13.647,0c.367.4.968-.2.577-.568a10.41,10.41,0,0,0-7.4-3.1Zm0,2.548a7.9,7.9,0,0,0-5.62,2.355c-.419.356.232.977.573.568a7.074,7.074,0,0,1,10.093,0,.4.4,0,0,0,.577-.568A7.909,7.909,0,0,0,8.855,7.656Zm0,2.544a5.4,5.4,0,0,0-3.841,1.608c-.393.363.205.973.573.571a4.587,4.587,0,0,1,6.538,0,.406.406,0,1,0,.577-.571A5.409,5.409,0,0,0,8.855,10.2Zm10.3,2.073h2.429v3.645H19.156Zm-10.3.471a2.9,2.9,0,0,0-2.065.865.406.406,0,1,0,.577.571,2.089,2.089,0,0,1,2.98,0,.405.405,0,1,0,.574-.571,2.906,2.906,0,0,0-2.066-.865Zm-6.7,3.986H23.207a.8.8,0,0,1,.81.81v4.047a.806.806,0,0,1-.81.81H2.15a.8.8,0,0,1-.81-.81V17.539A.8.8,0,0,1,2.15,16.729Zm2.022.81A1.214,1.214,0,1,0,5.39,18.753,1.212,1.212,0,0,0,4.172,17.539Zm3.244,0a1.214,1.214,0,1,0,1.213,1.213A1.212,1.212,0,0,0,7.416,17.539Zm3.239,0a1.214,1.214,0,1,0,1.213,1.213A1.215,1.215,0,0,0,10.655,17.539Zm-6.483.807a.41.41,0,0,1,.407.407.405.405,0,1,1-.407-.407Zm3.244,0a.4.4,0,1,1-.407.407A.406.406,0,0,1,7.416,18.346Zm3.239,0a.409.409,0,0,1,.4.407.405.405,0,0,1-.811,0A.412.412,0,0,1,10.655,18.346Zm2.427,0a.405.405,0,0,0,0,.81h3.648a.405.405,0,0,0,0-.81Zm5.468,0a.405.405,0,0,0,0,.81h1.014a.405.405,0,0,0,0-.81ZM3.363,23.207H5.389v.81H3.363Zm16.6,0h2.025v.81H19.968Z"/>
  </g>
</svg>
